<?xml version="1.0" standalone="no"?><!DOCTYPE svg PUBLIC "-//W3C//DTD SVG 1.1//EN" "http://www.w3.org/Graphics/SVG/1.1/DTD/svg11.dtd"><svg t="1682842431158" class="icon" viewBox="0 0 1024 1024" version="1.1" xmlns="http://www.w3.org/2000/svg" p-id="3767" xmlns:xlink="http://www.w3.org/1999/xlink" width="14" height="14"><path d="M960 768a151.808 151.808 0 0 1 32 96 102.176 102.176 0 0 1-96 96H128a102.176 102.176 0 0 1-96-96 151.84 151.84 0 0 1 32-96l256-384V128H256V64h512v64h-64v256zM640 128h-256v288h256V128zM320 480L96 832s-24.544 64 64 64h704c88.544 0 64-64 64-64l-224-352H320z m448 256a96 96 0 1 1-96-96 96 96 0 0 1 96 96z m-128 0a32 32 0 1 0 32-32 32 32 0 0 0-32 32z m-240-64a48 48 0 1 1 48-48 48 48 0 0 1-48 48z" fill="#FF6600" p-id="3768"></path></svg>