<?xml version="1.0" standalone="no"?><!DOCTYPE svg PUBLIC "-//W3C//DTD SVG 1.1//EN" "http://www.w3.org/Graphics/SVG/1.1/DTD/svg11.dtd"><svg t="1689472248132" class="icon" viewBox="0 0 1024 1024" version="1.1" xmlns="http://www.w3.org/2000/svg" p-id="1714" xmlns:xlink="http://www.w3.org/1999/xlink" width="14" height="14"><path d="M240.01 439.977h49.357v176.03H240.01zM659.036 439.977h49.356v176.03h-49.356z" fill="#8a8a8a" p-id="1715"></path><path d="M1006.031 383.484l-187.903-112.76V141.416c0-17.89-14.501-32.391-32.39-32.391-17.889 0-32.391 14.501-32.391 32.391v127.365L571.168 369.896 402.747 268.827V141.416c0-17.89-14.502-32.391-32.391-32.391-17.889 0-32.391 14.501-32.391 32.391v129.117l-189.929 105.42a33.93 33.93 0 0 0-17.46 29.096l-3.66 216.607L18.98 690.477C3.897 700.094-0.535 720.12 9.083 735.202c6.177 9.688 16.645 14.982 27.342 14.982a32.248 32.248 0 0 0 17.384-5.084l101.915-64.982 191.218 114.748a33.895 33.895 0 0 0 17.461 4.838 33.915 33.915 0 0 0 16.467-4.264l197.019-109.355 165.742 99.461v125.906c0 17.889 14.502 32.391 32.39 32.391 17.889 0 32.391-14.502 32.391-32.391V786.936l192.61-106.908a33.933 33.933 0 0 0 17.459-29.096l4.018-237.777a33.936 33.936 0 0 0-16.468-29.671z m-640.968 343.11L194.746 624.387l3.355-198.603 173.672-96.397L542.09 431.596l-3.355 198.602-173.672 96.396z m585.894-96.397l-169.202 93.915a32.531 32.531 0 0 0-5.734-0.517c-1.158 0-2.301 0.063-3.428 0.182l-165.626-99.391 3.355-198.603 173.673-96.397 170.317 102.209-3.355 198.602z" fill="#8a8a8a" p-id="1716"></path></svg>