<?xml version="1.0" standalone="no"?><!DOCTYPE svg PUBLIC "-//W3C//DTD SVG 1.1//EN" "http://www.w3.org/Graphics/SVG/1.1/DTD/svg11.dtd"><svg t="1682842597615" class="icon" viewBox="0 0 1024 1024" version="1.1" xmlns="http://www.w3.org/2000/svg" p-id="4238" xmlns:xlink="http://www.w3.org/1999/xlink" width="14" height="14"><path d="M352 928v-96H128V258.592L297.376 96H896l0.128 576L640 927.04z" fill="#FFFFFF" p-id="4239"></path><path d="M215.264 767.552l86.56-94.304-23.584-21.664-86.528 94.304 23.552 21.664z m200.96-95.36h124.928v-32h-124.896v32z m255.968 0H736l30.912-32h-94.72v32z" fill="#808FA1" p-id="4240"></path><path d="M640 764l-32 30.4V384.384h-224V896h128v31.744L352 928v-96H128V256l169.376-160H896v416h-32V155.296l-224 223.456v385.28zM661.28 864L864 667.296v-15.616l0.192-0.096v52.16L703.68 864h-42.4zM160 285.376V800h192V352l68.64-66.624H160zM175.648 256h319.072l-97.408 96h224.192l224.544-224H310.432L175.68 256z" fill="#5D6D7E" p-id="4241"></path><path d="M896 598.336l-105.504 105.504a16 16 0 0 1-22.624-22.624L873.088 576H800v-32h128v128h-32v-73.664z m-320 275.168l105.152-105.152a16 16 0 1 1 22.624 22.624L598.752 896H672v32h-128v-128h32v73.504z" fill="#27A2DF" p-id="4242"></path></svg>