<?xml version="1.0" standalone="no"?><!DOCTYPE svg PUBLIC "-//W3C//DTD SVG 1.1//EN" "http://www.w3.org/Graphics/SVG/1.1/DTD/svg11.dtd"><svg t="1682843196179" class="icon" viewBox="0 0 1024 1024" version="1.1" xmlns="http://www.w3.org/2000/svg" p-id="5508" xmlns:xlink="http://www.w3.org/1999/xlink" width="14" height="14"><path d="M724.276053 55.466667c31.274667 0 60.16 16.725333 75.818667 43.946666l212.224 368.64a88.106667 88.106667 0 0 1 0 87.893334l-212.224 368.64a87.552 87.552 0 0 1-75.818667 43.946666H299.828053a87.552 87.552 0 0 1-75.818666-43.946666L11.785387 555.946667a88.106667 88.106667 0 0 1 0-87.893334l212.224-368.64A87.552 87.552 0 0 1 299.828053 55.466667h424.448z m0 79.061333H299.828053a8.746667 8.746667 0 0 0-6.144 2.56l-1.408 1.834667-212.224 368.682666a8.789333 8.789333 0 0 0-0.853333 6.656l0.853333 2.133334 212.224 368.64a8.746667 8.746667 0 0 0 5.290667 4.138666l2.261333 0.298667h424.448a8.746667 8.746667 0 0 0 6.144-2.56l1.408-1.834667 212.224-368.682666a8.789333 8.789333 0 0 0 0.853334-6.656l-0.853334-2.133334-212.224-368.64a8.746667 8.746667 0 0 0-5.290666-4.138666l-2.261334-0.298667zM512.052053 256a256 256 0 1 1 0 512 256 256 0 0 1 0-512z m0 76.8a179.2 179.2 0 1 0 0 358.4 179.2 179.2 0 0 0 0-358.4z" fill="#000000" p-id="5509"></path></svg>